<?xml version="1.0" encoding="UTF-8"?>
<svg version="1.1" xmlns="http://www.w3.org/2000/svg" width="512" height="512">
<path d="M0 0 C1.60920067 1.34818072 3.21367743 2.70202786 4.8125 4.0625 C5.82763672 4.85914063 5.82763672 4.85914063 6.86328125 5.671875 C23.31861505 18.99442982 33.27395319 40.49705445 36.8125 61.0625 C38.18574599 83.31476747 37.17635582 108.45575868 22.4921875 126.75390625 C20.38365539 128.39659987 19.26612471 128.34539657 16.625 128.3125 C12.32913937 128.3858082 10.25416707 130.04734874 7.25854492 133.06542969 C6.7607251 133.60071289 6.26290527 134.13599609 5.75 134.6875 C5.26055908 135.19700195 4.77111816 135.70650391 4.2668457 136.23144531 C0.75345634 140.24207765 0.52854581 142.87882568 0.8125 148.0625 C-1.03345509 153.87572875 -7.14531431 156.33156238 -12.1875 159.0625 C-22.59868996 163.98538096 -33.56781871 168.3188165 -45.1875 168.0625 C-45.21328125 168.92230469 -45.2390625 169.78210938 -45.265625 170.66796875 C-46.05883745 187.19923735 -51.05351804 199.86813881 -62.1875 212.0625 C-60.70113853 216.04831508 -58.78782362 219.64556366 -56.75 223.375 C-49.54191074 237.37518371 -48.23587735 253.1866211 -52.875 268.3125 C-54.74203287 273.41067094 -57.22163165 278.04006552 -60.015625 282.6875 C-61.48249167 285.21895313 -61.48249167 285.21895313 -61.1875 289.0625 C-59.57303827 291.67374384 -59.57303827 291.67374384 -57.4375 294.3125 C-47.9619051 306.92991473 -43.80157143 321.13301445 -45.49609375 336.94140625 C-46.11448502 341.0512456 -46.65261686 344.24107233 -48.9375 347.75 C-51.83250567 349.43875331 -53.8924067 349.36205394 -57.1875 349.0625 C-57.496875 350.2690625 -57.496875 350.2690625 -57.8125 351.5 C-59.05648427 354.72305016 -60.28556623 356.65011262 -62.3125 359.375 C-64.67644865 362.73668238 -65.51668148 364.70286996 -65.25 368.8125 C-64.99514907 372.78679699 -64.99514907 372.78679699 -67.0625 375.75 C-75.49867196 381.99276725 -85.332381 388.0625 -96.1875 388.0625 C-96.32285156 388.91070312 -96.45820313 389.75890625 -96.59765625 390.6328125 C-99.91517898 408.71033158 -108.8769005 423.34641462 -123.94140625 434.0546875 C-132.37443055 439.27078195 -141.35134961 442.74799142 -151.1875 444.0625 C-151.64189453 445.63837891 -151.64189453 445.63837891 -152.10546875 447.24609375 C-155.94092726 460.24265955 -160.56452615 469.25479192 -170.1875 479.0625 C-170.73019531 479.6296875 -171.27289063 480.196875 -171.83203125 480.78125 C-184.05191586 492.41334269 -199.67923942 494.6722428 -215.75390625 494.37109375 C-231.63085231 493.71330726 -244.07272153 485.86624311 -254.8125 474.7109375 C-257.03798336 472.22923073 -259.13811262 469.69064955 -261.1875 467.0625 C-261.5278125 467.5471875 -261.868125 468.031875 -262.21875 468.53125 C-270.78635673 480.38006781 -282.16865194 490.33418583 -296.8203125 493.66015625 C-315.24045297 495.86117071 -331.78359246 494.15661279 -347.1875 483.0625 C-359.24270459 472.93932157 -365.89735506 461.40969781 -369.1875 446.0625 C-369.1875 445.0725 -369.1875 444.0825 -369.1875 443.0625 C-369.75855469 443.04832031 -370.32960938 443.03414063 -370.91796875 443.01953125 C-386.78052769 442.08643955 -399.39651869 433.70277862 -410.125 422.45703125 C-418.11762153 413.17771875 -424.82266243 400.6310172 -424.1875 388.0625 C-424.84234375 387.97613281 -425.4971875 387.88976562 -426.171875 387.80078125 C-437.83191119 386.00566268 -447.37921637 381.94706849 -456.1875 374.0625 C-456.87585938 373.46695312 -457.56421875 372.87140625 -458.2734375 372.2578125 C-468.55938306 362.760062 -474.77485936 349.75477097 -475.56640625 335.8046875 C-476.14192815 317.89426127 -472.55699815 303.74120432 -460.34765625 290.203125 C-458.89667462 288.10240601 -458.89667462 288.10240601 -459.77734375 285.72265625 C-460.24269531 284.84480469 -460.70804687 283.96695312 -461.1875 283.0625 C-461.7340625 281.98355469 -462.280625 280.90460938 -462.84375 279.79296875 C-464.06971858 277.43713505 -465.29887081 275.08295529 -466.53125 272.73046875 C-472.38399935 260.49050994 -472.3865376 243.49120952 -468.0625 230.75 C-466.08697023 225.60681042 -463.67112626 221.19599388 -460.2265625 216.89453125 C-459.01073199 215.13403241 -459.01073199 215.13403241 -459.2890625 213.140625 C-460.4692106 210.41089114 -462.10363526 208.34059052 -463.9375 206 C-474.64393076 191.60963608 -476.73682441 176.56859585 -475.1875 159.0625 C-472.8832326 145.3474539 -464.95037575 132.73303466 -454.1875 124.0625 C-444.98036752 117.74453083 -435.35280397 113.25029829 -424.1875 112.0625 C-424.17332031 111.47984375 -424.15914063 110.8971875 -424.14453125 110.296875 C-423.28992715 95.60692337 -415.14730154 82.11739636 -404.640625 72.12890625 C-394.84817406 63.88016971 -382.30121685 56.79118172 -369.1875 57.0625 C-369.08953125 56.37285156 -368.9915625 55.68320313 -368.890625 54.97265625 C-366.33343735 38.90205453 -366.33343735 38.90205453 -360.1875 34.0625 C-358.15632009 33.86905429 -356.12512731 33.67573663 -354.09375 33.484375 C-350.99152706 32.79781746 -349.99540958 30.58261638 -348.1875 28.0625 C-346.62295684 26.89114046 -345.03759571 25.74730664 -343.4375 24.625 C-341.05313324 22.91561116 -341.05313324 22.91561116 -339.1875 21.0625 C-338.85388081 17.97858998 -338.85388081 17.97858998 -339.1875 15.0625 C-335.86980898 9.9016473 -330.94604337 8.39546609 -325.18359375 6.79296875 C-312.83246823 4.20153659 -299.79191937 5.18832107 -288.1875 10.0625 C-287.33285156 10.38992187 -286.47820312 10.71734375 -285.59765625 11.0546875 C-275.60988474 15.37798828 -266.88767055 23.90151161 -261.1875 33.0625 C-258.60835379 30.58651964 -256.28787556 27.99013003 -254 25.25 C-245.25007459 15.27915477 -232.64570597 7.29129272 -219.1875 6.0625 C-201.95421727 5.02711675 -185.99330875 7.25577977 -172.43188477 18.90380859 C-161.21041067 29.05715743 -153.09695292 41.60180031 -152.1875 57.0625 C-150.8675 57.0625 -149.5475 57.0625 -148.1875 57.0625 C-148.0740625 55.89976563 -147.960625 54.73703125 -147.84375 53.5390625 C-145.65018229 36.21140091 -135.02063025 21.27093475 -123.1875 9.0625 C-122.6615625 8.46308594 -122.135625 7.86367188 -121.59375 7.24609375 C-91.65571246 -25.67047304 -33.85832554 -26.73568998 0 0 Z " fill="#020101" transform="translate(475.1875,17.9375)"/>
<path d="M0 0 C0.44859375 0.49886719 0.8971875 0.99773438 1.359375 1.51171875 C2.88121708 3.19988547 2.88121708 3.19988547 5.015625 3.14453125 C5.75296875 3.03496094 6.4903125 2.92539062 7.25 2.8125 C8.05566406 2.69648437 8.86132812 2.58046875 9.69140625 2.4609375 C12.17692246 2.01443139 12.17692246 2.01443139 15.1875 0.9375 C26.40990879 -1.82210872 36.69933231 0.0133687 47 5 C50.33789158 7.0403729 53.17535978 9.29939587 56 12 C56.63550781 12.60714844 57.27101562 13.21429688 57.92578125 13.83984375 C65.64425106 21.92192456 69.12192183 31.53590987 69.12863445 42.58716965 C69.13038749 43.238578 69.13214053 43.88998634 69.13394669 44.56113434 C69.13860393 46.74705598 69.1361419 48.93291103 69.13371277 51.11883545 C69.13558088 52.70066038 69.13788159 54.28248486 69.14057809 55.8643086 C69.14670251 60.21384593 69.14656174 64.56336407 69.14538372 68.91290474 C69.14517987 73.60287905 69.15069695 78.29284717 69.15544128 82.9828186 C69.16375209 92.17272014 69.16649633 101.36261526 69.16705366 110.55252025 C69.16752865 118.02229114 69.16958255 125.49205992 69.17275429 132.96183014 C69.1815623 154.13631041 69.18617347 175.31078561 69.18542381 196.48526773 C69.18538386 197.6270825 69.1853439 198.76889728 69.18530273 199.9453125 C69.18526185 201.08852027 69.18522097 202.23172804 69.18517885 203.40957847 C69.18477242 221.93625407 69.19434095 240.46290934 69.2084411 258.98957905 C69.22280214 278.00902097 69.22971142 297.02845296 69.22884732 316.04790044 C69.22851524 326.72728283 69.23126713 337.40664391 69.24202538 348.08602142 C69.25112682 357.17910822 69.25330857 366.27216405 69.24651595 375.36525342 C69.24324886 380.00428522 69.2432009 384.64325761 69.2518692 389.28228378 C69.25972679 393.53116264 69.25831032 397.77993489 69.24958507 402.02881113 C69.24804844 403.56380539 69.24987237 405.09880758 69.25544515 406.63379249 C69.30556659 421.42190914 67.3940539 434.45065709 57 445.8125 C47.06026087 455.09297071 35.23416772 458.53984877 21.859375 458.27734375 C9.24944138 457.37116431 -0.88831898 450.19229179 -8.98046875 440.8671875 C-12.78218691 435.46977718 -16 428.69538321 -16 422 C-14.99582031 421.72027344 -13.99164063 421.44054687 -12.95703125 421.15234375 C-1.22469678 417.76152897 9.94831187 413.53444881 19 405 C22.73020806 406.72802512 25.69921681 409.01528176 28.90234375 411.5625 C33.01773007 414.38272749 36.66380962 415.30666404 41.625 415.375 C42.56601563 415.40335937 43.50703125 415.43171875 44.4765625 415.4609375 C47.12863103 415.22964264 47.12863103 415.22964264 48.8046875 413.1328125 C50.32189588 410.42563676 50.6108022 409.05401099 50 406 C47.2393501 402.98838193 45.56425225 402.08060746 41.5 401.5 C37.43402861 400.91914694 35.87433869 399.87433869 33 397 C31.262092 394.43887243 30.76293871 391.91999977 30.125 388.9375 C29.47134339 386.2424235 29.08325518 385.09812217 27.25 382.9375 C24.05279974 381.60533322 22.31415676 382.04430876 19 383 C16.46508639 385.47895981 16.46508639 385.47895981 14.25 388.625 C6.9867822 397.95730192 -3.0498358 405.24117253 -15 407 C-32.3416001 408.16459854 -44.54748202 405.86747163 -58.00390625 394.2734375 C-65.55432953 387.13070446 -69.3484777 378.99875726 -72 369 C-72 368.01 -72 367.02 -72 366 C-70.83082031 365.67386719 -69.66164062 365.34773438 -68.45703125 365.01171875 C-66.908746 364.57069204 -65.36057486 364.12926462 -63.8125 363.6875 C-63.04357422 363.47416016 -62.27464844 363.26082031 -61.48242188 363.04101562 C-57.21009357 361.81249203 -53.79572055 360.36625358 -50 358 C-49.01 358 -48.02 358 -47 358 C-45.640625 359.94140625 -45.640625 359.94140625 -44.25 362.5625 C-38.75062198 372.07240004 -32.20414181 376.85717403 -22 381 C-16.58513558 382.35986005 -10.68772617 383.11442305 -5.4375 380.9375 C-3.71176512 378.92250901 -3.71176512 378.92250901 -3.4375 375.5 C-3.64417576 371.98150036 -3.64417576 371.98150036 -5.875 370.1875 C-8.61982346 369.14446709 -10.94098232 368.61612244 -13.8125 368.125 C-21.86147006 366.66372865 -27.35781168 362.6316976 -32 356 C-35.54025226 349.89611679 -35.92309515 343.96759319 -35 337 C-32.76245712 329.61403668 -28.77141588 324.66582047 -22 321 C-17.62406499 319.12569217 -13.12291398 318.01893166 -8.5 316.9375 C-6.7675 316.4734375 -6.7675 316.4734375 -5 316 C-3.60064987 313.20129973 -3.74734595 311.09501208 -4 308 C-5.07929201 306.21611852 -5.07929201 306.21611852 -7 305 C-16.58888586 303.5072001 -24.60157162 305.51869552 -32.62890625 310.6953125 C-41.05838617 316.90121873 -45.21317649 323.7304169 -47.9375 333.75 C-49.65577452 339.74283451 -51.57600462 342.89905176 -57 346 C-59.93515835 347.55329619 -62.89104822 348.8369389 -66 350 C-67.0725 350.4125 -68.145 350.825 -69.25 351.25 C-81.308886 353.6617772 -93.20200525 351.82099679 -103.75 345.375 C-113.39068303 338.30398432 -120.00476666 329.28789234 -122.8125 317.625 C-122.874375 316.42875 -122.93625 315.2325 -123 314 C-123.061875 313.03320312 -123.12375 312.06640625 -123.1875 311.0703125 C-123.67306255 298.17255727 -119.37446369 287.87771082 -110.625 278.4375 C-109.820625 277.7259375 -109.820625 277.7259375 -109 277 C-105.48881848 278.36651389 -102.09050867 279.88467895 -98.6875 281.5 C-89.91970374 285.45776689 -81.73020712 287.23790597 -72 286 C-70.07192342 284.81770895 -70.07192342 284.81770895 -69 283 C-68.41666667 279.5 -68.41666667 279.5 -69 276 C-72.32135394 272.43167359 -76.47087247 272.28312157 -81.0625 271.6875 C-93.15165236 269.80017481 -102.34866278 264.76513078 -110 255 C-116.84992936 243.71084604 -119.88508736 232.76407522 -117.34765625 219.62109375 C-113.90022788 207.08902581 -106.63191748 197.69800728 -95.6875 190.75 C-88.99139156 187.19602901 -81.38863624 185.73773395 -73.875 185.40625 C-71.4097949 184.87212223 -70.5079134 183.99821653 -69 182 C-68.41967632 177.40391265 -68.41967632 177.40391265 -70.1875 173.30859375 C-74.10672499 170.47898088 -79.4172332 171.52537513 -84 172 C-91.30340762 173.57773963 -97.77377851 175.99777046 -104 180.14453125 C-106.77544724 181.33168544 -108.18531749 181.02878427 -111 180 C-119.02711832 172.0409081 -123.4439564 160.14349971 -123.625 149 C-123.43690961 137.43382426 -119.06260787 127.24974771 -111 119 C-101.35452201 110.16219488 -91.25071908 105.39368213 -77.9921875 105.6875 C-68.28059167 106.70176588 -60.00108358 110.59386245 -52 116 C-49.10538099 118.36139302 -49.10538099 118.36139302 -45.4375 117.8125 C-41.74174248 117.35160238 -41.74174248 117.35160238 -40 114 C-39.6109438 110.6127524 -39.6109438 110.6127524 -41 107 C-48.82224724 98.32911273 -61.08970557 94.9689518 -72 92 C-70.64625261 79.13939975 -63.45724901 68.35669477 -53.8515625 60.0859375 C-46.77522195 54.90954592 -39.8471351 51.5659896 -31 52 C-30.72027344 53.02738281 -30.44054687 54.05476563 -30.15234375 55.11328125 C-27.61398484 64.03423141 -24.61458217 71.48370452 -19 79 C-18.31550781 79.92232422 -18.31550781 79.92232422 -17.6171875 80.86328125 C-14.08671807 85.33742962 -11.18261807 88.73658058 -5.375 89.4375 C-2.12020697 89.23681174 -2.12020697 89.23681174 -0.0625 87.875 C1.63262266 84.88360708 1.64407189 83.41358101 1 80 C-1.08608918 77.10465209 -3.55982256 74.59729149 -6 72 C-14.42115672 61.99368437 -17.34545131 52.49678216 -17.30078125 39.453125 C-16.90075245 34.86058661 -15.49525631 30.95797709 -13.8984375 26.66015625 C-12.08839829 21.30086624 -12.56474674 17.02270984 -15 12 C-12.01377035 7.71540964 -5.65866548 0 0 0 Z " fill="#DE74A4" transform="translate(138,39)"/>
<path d="M0 0 C2.27460697 1.680896 4.32362437 3.43679917 6.3671875 5.390625 C7.00269531 5.99777344 7.63820313 6.60492188 8.29296875 7.23046875 C17.32445542 16.6874216 19.90736247 27.73394856 19.63671875 40.47265625 C18.90394134 51.12447855 14.37215184 59.4594922 7.3671875 67.390625 C5.71089 68.73681746 4.04597823 70.07258963 2.3671875 71.390625 C0.54821777 75.02856446 1.11464548 78.63299893 2.3671875 82.390625 C6.81749604 82.95574355 9.79795537 83.31967288 13.72265625 80.99609375 C24.26886409 72.08354977 31.0189931 58.930214 33.3671875 45.390625 C34.3571875 45.390625 35.3471875 45.390625 36.3671875 45.390625 C36.45355469 46.56496094 36.53992188 47.73929688 36.62890625 48.94921875 C37.66559315 61.35832202 39.51296101 73.59477459 45.08984375 84.875 C47.35497015 91.10929284 45.16083524 97.76699649 43.7734375 104.1015625 C43.62185181 104.79577301 43.47026611 105.48998352 43.31408691 106.20523071 C42.99644057 107.65591787 42.6770474 109.10622358 42.35595703 110.55615234 C41.86402909 112.77990251 41.37891006 115.00506338 40.89453125 117.23046875 C38.50421093 128.11657814 38.50421093 128.11657814 37.3671875 130.390625 C37.22343328 133.76884916 37.29182402 136.16453455 38.3671875 139.390625 C46.30503397 141.20241594 53.05605356 139.10240178 60.8046875 137.078125 C63.34491723 136.43566447 65.88527883 135.79372513 68.42578125 135.15234375 C73.23611109 133.93605025 73.23611109 133.93605025 78.03564453 132.67822266 C85.49384461 130.79905336 91.13931385 132.11189224 98.3046875 134.828125 C107.42897114 138.16440153 115.6511853 139.77527819 125.3671875 140.390625 C126.17582622 152.31804616 122.41019967 161.82467886 115.3671875 171.34375 C112.42815385 174.35166725 112.42815385 174.35166725 109.3671875 174.390625 C106.34375 173.24609375 106.34375 173.24609375 102.9921875 171.578125 C94.17437189 167.23116906 84.37322353 163.76173541 74.3671875 165.390625 C72.66262823 166.57886375 72.66262823 166.57886375 71.3671875 168.390625 C71.00572293 170.67392601 71.00572293 170.67392601 71.1796875 173.078125 C71.22029297 174.29048828 71.22029297 174.29048828 71.26171875 175.52734375 C71.29652344 176.14222656 71.33132813 176.75710937 71.3671875 177.390625 C71.91020508 177.48037598 72.45322266 177.57012695 73.01269531 177.66259766 C88.39455443 180.27614672 102.43753945 183.25235262 112.3671875 196.390625 C119.73370036 208.33408765 122.28377964 219.64954316 119.2421875 233.515625 C116.19237595 244.3452799 109.47119968 254.34528473 99.5546875 259.9921875 C96.85722288 261.24562894 94.15410979 262.35373241 91.3671875 263.390625 C90.3771875 263.803125 89.3871875 264.215625 88.3671875 264.640625 C84.54193367 265.59693846 80.78858878 265.78057875 76.85546875 265.94921875 C73.9764036 266.45994773 73.04321231 267.02220961 71.3671875 269.390625 C70.77636705 274.00928536 70.77636705 274.00928536 72.60546875 278.08984375 C76.51981645 280.98003839 82.23237989 279.63499089 86.82421875 279.109375 C93.77544481 277.94147918 99.95150597 275.22187343 106.3671875 272.390625 C108.0310137 271.71690057 109.6967705 271.04783825 111.3671875 270.390625 C116.3784233 275.64512468 120.70458565 280.575946 123.3671875 287.390625 C123.73328125 288.21949219 124.099375 289.04835938 124.4765625 289.90234375 C126.00610466 295.89305053 125.36533459 302.01531406 125.11328125 308.15625 C125.08041016 309.65285156 125.08041016 309.65285156 125.046875 311.1796875 C125.01319824 312.08412598 124.97952148 312.98856445 124.94482422 313.92041016 C125.49746156 317.15253997 127.02186744 318.19421874 129.3671875 320.390625 C129.37400584 325.4225575 127.30292859 328.36315247 124.3046875 332.265625 C123.57121094 333.23242188 122.83773437 334.19921875 122.08203125 335.1953125 C121.51613281 335.91976563 120.95023438 336.64421875 120.3671875 337.390625 C119.3771875 337.060625 118.3871875 336.730625 117.3671875 336.390625 C110.64838911 335.56550941 107.52390617 337.25712045 101.91796875 340.85546875 C92.80082273 346.34251069 81.53858182 346.99534914 71.27734375 344.69921875 C64.25401983 342.34497693 57.62885515 338.65229265 52.3671875 333.390625 C51.91927076 331.59028868 51.5325881 329.77447105 51.1796875 327.953125 C48.89500872 318.38962037 43.71500985 309.81753933 35.3671875 304.390625 C28.82956141 300.72755817 23.44344715 298.24300689 15.8671875 298.140625 C14.7225 298.11484375 13.5778125 298.0890625 12.3984375 298.0625 C9.41820948 298.15917243 9.41820948 298.15917243 7.44140625 299.61328125 C5.99765447 302.00203419 6.24475528 303.34991381 6.6796875 306.078125 C6.79957031 306.88636719 6.91945313 307.69460938 7.04296875 308.52734375 C7.20345703 309.44966797 7.20345703 309.44966797 7.3671875 310.390625 C8.49253906 310.52017578 8.49253906 310.52017578 9.640625 310.65234375 C18.74956537 311.90281541 26.94048928 313.84101589 32.8671875 321.328125 C37.49916299 328.38076564 38.2231372 335.061576 37.3671875 343.390625 C35.56966077 350.11428511 30.9094166 354.45134685 25.3671875 358.390625 C20.53256127 360.98699834 15.87635149 361.9758015 10.50390625 362.765625 C7.99624632 363.25060397 7.99624632 363.25060397 6.3671875 366.390625 C6.59931716 371.43063908 6.59931716 371.43063908 9.3671875 375.390625 C18.56518081 376.29534565 28.14659529 374.03865752 35.7421875 368.640625 C41.53075874 363.79437931 46.40106185 358.36974419 49.3671875 351.390625 C52.62380494 351.79770218 55.08711348 352.71081416 57.9296875 354.265625 C63.11718899 356.99379277 68.67662898 358.13870213 74.3671875 359.390625 C73.55388419 371.31907357 67.75563363 380.2355965 59.3671875 388.390625 C58.80128906 388.97714844 58.23539062 389.56367188 57.65234375 390.16796875 C47.72944032 399.70269014 34.52024679 400.94720597 21.5078125 400.73046875 C7.79798047 400.12532781 -1.81788235 392.47980894 -11.0859375 383.10546875 C-12.58540769 381.4431773 -13.83682138 379.71258654 -15.1328125 377.890625 C-15.9578125 377.065625 -16.7828125 376.240625 -17.6328125 375.390625 C-21.30864695 375.21300759 -21.30864695 375.21300759 -24.6328125 376.390625 C-27.56295821 379.32077071 -27.76770885 382.69239061 -28.65625 386.6640625 C-29.80906736 389.88272856 -30.9407923 391.29683151 -33.6328125 393.390625 C-36.359375 394.3671875 -36.359375 394.3671875 -39.2578125 395.015625 C-43.3928997 395.8619162 -43.3928997 395.8619162 -46.6328125 398.390625 C-46.9504371 400.30068806 -46.9504371 400.30068806 -46.8828125 402.390625 C-46.88796875 403.091875 -46.893125 403.793125 -46.8984375 404.515625 C-46.78986765 406.6341919 -46.78986765 406.6341919 -44.6328125 408.390625 C-37.46941967 409.57533997 -30.8791538 407.93236491 -24.6328125 404.390625 C-22.34505914 402.52214118 -20.5743309 400.63869893 -18.6328125 398.390625 C-14.9456942 399.71303669 -12.12831713 401.34970094 -9.0078125 403.703125 C-0.56717882 409.71785804 8.33552731 413.00398244 18.3671875 415.390625 C17.90769807 425.49939235 12.33534241 434.56449057 5.0703125 441.34765625 C-6.18315115 449.85280291 -17.71936041 452.39047834 -31.6328125 451.390625 C-43.31267194 448.82281671 -52.60245078 441.90770856 -59.6328125 432.390625 C-66.4572674 421.37449984 -66.9286099 410.46010428 -66.90023804 397.85565186 C-66.90397836 396.27734862 -66.90858141 394.69904723 -66.91396868 393.12074876 C-66.92616676 388.79935671 -66.92594199 384.47804227 -66.92357993 380.15663695 C-66.92317096 375.48982417 -66.93421857 370.82303599 -66.94369507 366.15623474 C-66.96028835 357.01901057 -66.96580385 347.8818122 -66.96691982 338.74457422 C-66.96787106 331.31545308 -66.97198513 323.88634044 -66.97832108 316.45722198 C-66.99592867 295.38197125 -67.00516066 274.30674086 -67.00366013 253.23148271 C-67.00358022 252.09596744 -67.0035003 250.96045217 -67.00341797 249.79052734 C-67.00333621 248.65362144 -67.00325445 247.51671553 -67.00317021 246.34535792 C-67.00235737 227.92184365 -67.02149572 209.49841114 -67.0496947 191.07492051 C-67.0784385 172.14572926 -67.09223418 153.21657787 -67.09050715 134.28736424 C-67.08984378 123.66489663 -67.09531282 113.04251476 -67.11686325 102.42006683 C-67.13509467 93.37583787 -67.13940623 84.3317335 -67.1258444 75.28749409 C-67.11932478 70.67622703 -67.11916118 66.06519888 -67.1365509 61.4539547 C-67.15233113 57.22588815 -67.14936783 52.99824897 -67.13198264 48.77019253 C-67.12892361 47.24735818 -67.13250344 45.72449154 -67.14370279 44.20169529 C-67.24763523 29.05688784 -64.33786802 16.63861537 -53.75390625 5.39453125 C-38.73728932 -8.71198769 -17.59386969 -10.75470966 0 0 Z " fill="#DD74A4" transform="translate(288.6328125,45.609375)"/>
<path d="M0 0 C9.2527776 0.40229468 16.86773084 5.96073038 23.109375 12.51953125 C30.90642914 22.7491374 33.8232951 33.29991081 33 46 C31.10986851 58.70232431 25.1015679 69.01344788 15 77 C11.44376945 79.02507573 7.83104454 80.57463492 4 82 C3.01 82.4125 2.02 82.825 1 83.25 C-2.82525383 84.20631346 -6.57859872 84.38995375 -10.51171875 84.55859375 C-13.3907839 85.06932273 -14.32397519 85.63158461 -16 88 C-16.59082045 92.61866036 -16.59082045 92.61866036 -14.76171875 96.69921875 C-10.84737105 99.58941339 -5.13480761 98.24436589 -0.54296875 97.71875 C6.40825731 96.55085418 12.58431847 93.83124843 19 91 C20.6638262 90.32627557 22.329583 89.65721325 24 89 C29.0112358 94.25449968 33.33739815 99.185321 36 106 C36.36609375 106.82886719 36.7321875 107.65773438 37.109375 108.51171875 C38.63891716 114.50242553 37.99814709 120.62468906 37.74609375 126.765625 C37.71322266 128.26222656 37.71322266 128.26222656 37.6796875 129.7890625 C37.64601074 130.69350098 37.61233398 131.59793945 37.57763672 132.52978516 C38.13027406 135.76191497 39.65467994 136.80359374 42 139 C42.00681834 144.0319325 39.93574109 146.97252747 36.9375 150.875 C36.20402344 151.84179688 35.47054687 152.80859375 34.71484375 153.8046875 C34.14894531 154.52914062 33.58304688 155.25359375 33 156 C32.01 155.67 31.02 155.34 30 155 C23.28120161 154.17488441 20.15671867 155.86649545 14.55078125 159.46484375 C5.43363523 164.95188569 -5.82860568 165.60472414 -16.08984375 163.30859375 C-23.11316767 160.95435193 -29.73833235 157.26166765 -35 152 C-35.44791674 150.19966368 -35.8345994 148.38384605 -36.1875 146.5625 C-38.47217878 136.99899537 -43.65217765 128.42691433 -52 123 C-58.53762609 119.33693317 -63.92374035 116.85238189 -71.5 116.75 C-72.6446875 116.72421875 -73.789375 116.6984375 -74.96875 116.671875 C-77.94897802 116.76854743 -77.94897802 116.76854743 -79.92578125 118.22265625 C-81.36953303 120.61140919 -81.12243222 121.95928881 -80.6875 124.6875 C-80.56761719 125.49574219 -80.44773437 126.30398438 -80.32421875 127.13671875 C-80.16373047 128.05904297 -80.16373047 128.05904297 -80 129 C-78.87464844 129.12955078 -78.87464844 129.12955078 -77.7265625 129.26171875 C-68.61762213 130.51219041 -60.42669822 132.45039089 -54.5 139.9375 C-49.86802451 146.99014064 -49.1440503 153.670951 -50 162 C-51.79752673 168.72366011 -56.4577709 173.06072185 -62 177 C-66.83462623 179.59637334 -71.49083601 180.5851765 -76.86328125 181.375 C-79.37094118 181.85997897 -79.37094118 181.85997897 -81 185 C-80.76787034 190.04001408 -80.76787034 190.04001408 -78 194 C-68.80200669 194.90472065 -59.22059221 192.64803252 -51.625 187.25 C-45.83642876 182.40375431 -40.96612565 176.97911919 -38 170 C-34.74338256 170.40707718 -32.28007402 171.32018916 -29.4375 172.875 C-24.24999851 175.60316777 -18.69055852 176.74807713 -13 178 C-13.81330331 189.92844857 -19.61155387 198.8449715 -28 207 C-28.56589844 207.58652344 -29.13179688 208.17304688 -29.71484375 208.77734375 C-39.63774718 218.31206514 -52.84694071 219.55658097 -65.859375 219.33984375 C-79.56920703 218.73470281 -89.18506985 211.08918394 -98.453125 201.71484375 C-99.95259519 200.0525523 -101.20400888 198.32196154 -102.5 196.5 C-103.325 195.675 -104.15 194.85 -105 194 C-108.67583445 193.82238259 -108.67583445 193.82238259 -112 195 C-114.93014571 197.93014571 -115.13489635 201.30176561 -116.0234375 205.2734375 C-117.17625486 208.49210356 -118.3079798 209.90620651 -121 212 C-123.7265625 212.9765625 -123.7265625 212.9765625 -126.625 213.625 C-130.7600872 214.4712912 -130.7600872 214.4712912 -134 217 C-134.3176246 218.91006306 -134.3176246 218.91006306 -134.25 221 C-134.25515625 221.70125 -134.2603125 222.4025 -134.265625 223.125 C-134.15705515 225.2435669 -134.15705515 225.2435669 -132 227 C-124.83660717 228.18471497 -118.2463413 226.54173991 -112 223 C-109.71224664 221.13151618 -107.9415184 219.24807393 -106 217 C-102.3128817 218.32241169 -99.49550463 219.95907594 -96.375 222.3125 C-87.93436632 228.32723304 -79.03166019 231.61335744 -69 234 C-69.45948943 244.10876735 -75.03184509 253.17386557 -82.296875 259.95703125 C-93.55033865 268.46217791 -105.08654791 270.99985334 -119 270 C-130.67985944 267.43219171 -139.96963828 260.51708356 -147 251 C-156.08944843 236.32769238 -155.06249603 218.60576011 -155.45956707 201.91934013 C-155.56758457 197.45124169 -155.72349812 192.99650875 -155.99584961 188.53515625 C-157.71108998 159.72349826 -157.71108998 159.72349826 -151.60910034 151.95684814 C-145.72827677 146.99098066 -139.20989765 144.02500942 -132.06929016 141.29450989 C-127.47963221 139.35876667 -123.64754073 136.60823007 -119.6875 133.625 C-118.34567383 132.65148619 -117.00331808 131.6787014 -115.66015625 130.70703125 C-114.43945034 129.80557221 -113.21936578 128.90327096 -112 128 C-110.89463415 127.19126559 -109.78917018 126.38266527 -108.68359375 125.57421875 C-99.26202816 118.60731393 -90.23064506 111.24237605 -81.58203125 103.3359375 C-80.15289709 102.04301431 -78.71715892 100.75690314 -77.25561523 99.50073242 C-71.73804513 94.75615855 -66.56955454 89.71912942 -61.4375 84.5625 C-60.62603516 83.75490234 -59.81457031 82.94730469 -58.97851562 82.11523438 C-48.7919399 72.40655275 -48.7919399 72.40655275 -43 60 C-41.57783578 57.65403681 -40.04310986 55.43470715 -38.4375 53.2109375 C-34.8377837 47.67441732 -34.06974232 42.47421758 -35 36 C-36.78735087 31.15065362 -39.29698285 26.88272233 -42.375 22.75 C-44 20 -44 20 -44 16.8125 C-42.83041841 13.52305178 -42.12744703 12.52146072 -39 11 C-36.0625 10.5 -36.0625 10.5 -33 11 C-26.38312243 16.12808011 -21.72990678 23.86943812 -20 32 C-15.70672188 28.31283173 -13.30090817 23.67534036 -10.5625 18.8125 C-10.09779297 17.99974609 -9.63308594 17.18699219 -9.15429688 16.34960938 C-6.05948257 10.92397259 -3.02335606 5.46570838 0 0 Z " fill="#DB568F" transform="translate(376,227)"/>
<path d="M0 0 C1.61841797 0.54527344 1.61841797 0.54527344 3.26953125 1.1015625 C24.31677349 8.69719125 39.6712235 22.90778065 49.3659668 42.9206543 C58.01487515 61.79079531 58.56857973 82.61599013 51.5703125 102.15625 C49.78561859 106.84232715 47.97953531 111.44400252 45.30078125 115.69921875 C43.40022817 119.06085769 44.11799614 121.33629164 45 125 C45.66 125.99 46.32 126.98 47 128 C43.04 132.29 39.08 136.58 35 141 C32.62631185 140.40657796 30.26338605 139.759473 27.9375 139 C22.70537741 139 20.44192884 141.11509008 16.21875 144.015625 C0.39749838 153.76950342 -20.25852841 156.81769092 -38.33422852 152.81787109 C-44.63109029 151.25853339 -50.42620509 149.18502566 -56.08203125 145.953125 C-64.87779834 143.08007658 -73.81840205 145.61565141 -82.4375 148 C-84.53926467 148.56659594 -86.64209206 149.12926834 -88.74609375 149.6875 C-90.11785767 150.06455078 -90.11785767 150.06455078 -91.51733398 150.44921875 C-94 151 -94 151 -98 151 C-97.22101359 142.79068171 -95.08373555 134.98431156 -92.99609375 127.0234375 C-92.72667969 125.9509375 -92.45726562 124.8784375 -92.1796875 123.7734375 C-91.92944824 122.80841309 -91.67920898 121.84338867 -91.42138672 120.84912109 C-90.62418848 115.45902642 -92.18414774 111.1788476 -94.375 106.3125 C-97.85343425 98.1995045 -100.49432705 89.8641493 -101 81 C-101.09667969 79.38351563 -101.09667969 79.38351563 -101.1953125 77.734375 C-101.85295511 56.77749712 -94.05739353 37.86337768 -80.46484375 22.05078125 C-60.24508796 0.69943383 -28.47856025 -9.71301509 0 0 Z " fill="#B1E39D" transform="translate(441,18)"/>
<path d="M0 0 C0.0464976 8.84102855 0.08195729 17.6820145 0.10362434 26.523139 C0.11402745 30.62915833 0.12812263 34.73509353 0.15087891 38.84106445 C0.1727319 42.80923341 0.1845947 46.77732182 0.18975449 50.74554634 C0.19342801 52.25368071 0.20060103 53.76181106 0.21146011 55.26991081 C0.31466717 70.20770743 -1.49098646 83.32499358 -12 94.8125 C-21.93973913 104.09297071 -33.76583228 107.53984877 -47.140625 107.27734375 C-59.75055862 106.37116431 -69.88831898 99.19229179 -77.98046875 89.8671875 C-81.78218691 84.46977718 -85 77.69538321 -85 71 C-83.99582031 70.72027344 -82.99164063 70.44054687 -81.95703125 70.15234375 C-70.22469678 66.76152897 -59.05168813 62.53444881 -50 54 C-46.26979194 55.72802512 -43.30078319 58.01528176 -40.09765625 60.5625 C-35.98226993 63.38272749 -32.33619038 64.30666404 -27.375 64.375 C-26.43398437 64.40335937 -25.49296875 64.43171875 -24.5234375 64.4609375 C-21.87136897 64.22964264 -21.87136897 64.22964264 -20.1953125 62.1328125 C-18.67810412 59.42563676 -18.3891978 58.05401099 -19 55 C-21.7606499 51.98838193 -23.43574775 51.08060746 -27.5 50.5 C-31.56597139 49.91914694 -33.12566131 48.87433869 -36 46 C-37.737908 43.43887243 -38.23706129 40.91999977 -38.875 37.9375 C-39.52865661 35.2424235 -39.91674482 34.09812217 -41.75 31.9375 C-44.94720026 30.60533322 -46.68584324 31.04430876 -50 32 C-52.53491361 34.47895981 -52.53491361 34.47895981 -54.75 37.625 C-62.0132178 46.95730192 -72.0498358 54.24117253 -84 56 C-101.3416001 57.16459854 -113.54748202 54.86747163 -127.00390625 43.2734375 C-134.55432953 36.13070446 -138.3484777 27.99875726 -141 18 C-141 17.01 -141 16.02 -141 15 C-139.24623047 14.51080078 -139.24623047 14.51080078 -137.45703125 14.01171875 C-135.908746 13.57069204 -134.36057486 13.12926462 -132.8125 12.6875 C-132.04357422 12.47416016 -131.27464844 12.26082031 -130.48242188 12.04101562 C-126.21009357 10.81249203 -122.79572055 9.36625358 -119 7 C-118.01 7 -117.02 7 -116 7 C-114.640625 8.94140625 -114.640625 8.94140625 -113.25 11.5625 C-107.75062198 21.07240004 -101.20414181 25.85717403 -91 30 C-85.64052132 31.34595077 -79.60881351 32.23918642 -74.5 29.8125 C-72.65478191 27.58286148 -72.30790262 25.84809926 -72 23 C-71.505 23.99 -71.505 23.99 -71 25 C-61.98795008 22.37324129 -52.9888209 19.70518487 -44 17 C-42.69192383 16.60868896 -42.69192383 16.60868896 -41.35742188 16.20947266 C-28.14080562 12.20881311 -15.67671509 6.63485168 -3.12280273 0.91455078 C-1 0 -1 0 0 0 Z " fill="#DB568E" transform="translate(207,390)"/>
<path d="M0 0 C6.22307775 5.10712499 11.5315786 13.29252611 12.91235352 21.27172852 C13.94279953 32.74757305 12.31758626 41.67821725 5.5625 51.25 C0.33836067 57.41872541 -5.68594198 61.02270923 -13.4375 63.25 C-14.0975 63.25 -14.7575 63.25 -15.4375 63.25 C-15.42178955 64.01666992 -15.4060791 64.78333984 -15.38989258 65.57324219 C-15.32751026 69.04875302 -15.28849838 72.52414601 -15.25 76 C-15.22486328 77.2065625 -15.19972656 78.413125 -15.17382812 79.65625 C-15.16416016 80.81640625 -15.15449219 81.9765625 -15.14453125 83.171875 C-15.1288208 84.24018555 -15.11311035 85.30849609 -15.09692383 86.40917969 C-15.48057042 89.60925982 -16.21221583 90.95760139 -18.4375 93.25 C-21.14374604 93.94292993 -23.69648213 93.73640192 -26.4375 93.25 C-28.61226401 91.70661909 -29.25582637 90.61334727 -30.4375 88.25 C-30.72060367 83.45193035 -30.75119507 78.65304532 -30.78759766 73.84741211 C-30.80414525 72.24602717 -30.83142009 70.64471573 -30.86962891 69.04370117 C-30.92452731 66.73056884 -30.94628918 64.41916564 -30.9609375 62.10546875 C-30.98360687 61.39384079 -31.00627625 60.68221283 -31.02963257 59.94902039 C-31.01301272 56.01936495 -30.5590013 54.40010594 -28.05444336 51.3059082 C-25.33378206 49.1685177 -24.00251317 48.59920976 -20.625 48.25 C-14.64997413 47.27048756 -10.01330366 45.3205908 -6.0546875 40.6015625 C-2.48558654 34.68633923 -2.58163615 27.93971129 -3.4375 21.25 C-6.09002434 15.53687066 -10.58373466 11.55280591 -16.3125 8.9375 C-22.9511957 7.47698695 -27.6907609 7.69532333 -33.61328125 10.9765625 C-38.34637788 14.28060854 -41.75714451 19.05988872 -42.96484375 24.72265625 C-43.23862026 26.45135937 -43.50944709 28.18053218 -43.77734375 29.91015625 C-44.52498263 32.56007158 -45.28236517 33.57494363 -47.4375 35.25 C-50.3125 36.25 -50.3125 36.25 -53.4375 36.25 C-56.3125 34.5 -56.3125 34.5 -58.4375 31.25 C-59.81914631 23.76508128 -58.23957237 16.75759017 -54.4375 10.25 C-40.71861719 -8.60997127 -19.61793418 -13.40309244 0 0 Z " fill="#030402" transform="translate(441.4375,39.75)"/>
<path d="M0 0 C4.10435892 0.65962911 4.96267085 1.36440805 7.5 4.5625 C8.40625 7.5859375 8.40625 7.5859375 9 10.9375 C10.80777398 19.54365803 14.49327808 24.43913386 21.5 29.5625 C24.72467454 31.34455699 27.39149475 31.63681484 31 31.875 C34.5860967 32.21624793 35.49982736 32.56237316 38.5625 34.8125 C40.5 37.5625 40.5 37.5625 41.125 40.0625 C40.16900832 43.88646672 38.69630435 45.27942547 35.5 47.5625 C26.91304011 49.37117069 18.15334469 45.762456 10.875 41.5 C1.33890153 35.07965647 -4.56642526 26.17213348 -7.078125 14.98828125 C-7.88870137 10.32746712 -8.20076607 6.87994021 -5.9375 2.625 C-3.5 0.5625 -3.5 0.5625 0 0 Z " fill="#050204" transform="translate(144.5,260.4375)"/>
<path d="M0 0 C7.92617684 6.14278705 12.38661133 15.27933329 14 25 C15.18433622 36.7611166 11.83756058 46.46569162 5 56 C2.03218716 59.19610613 0.74807466 59.88188295 -3.5625 60.5625 C-7 60 -7 60 -9.5 57.875 C-11 55 -11 55 -11.125 52.25 C-9.79581419 48.41012988 -7.84847908 45.52087657 -5.47265625 42.24609375 C-1.83960327 36.7049652 -1.0667671 31.4949239 -2 25 C-3.78735087 20.15065362 -6.29698285 15.88272233 -9.375 11.75 C-11 9 -11 9 -11 5.8125 C-9.05545352 0.34346301 -5.60194354 -0.91460303 0 0 Z " fill="#050203" transform="translate(343,238)"/>
<path d="M0 0 C11.46696336 1.52529679 19.96391596 7.907722 27.13671875 16.703125 C32.23782868 23.87225246 35.01741719 31.32335407 34.69921875 40.19140625 C34.2890625 42.4375 34.2890625 42.4375 32.2265625 45.625 C29.2890625 47.4375 29.2890625 47.4375 25.6640625 47.5 C21.89572376 46.31367114 21.24515425 45.72987536 19.2890625 42.4375 C18.734375 39.921875 18.734375 39.921875 18.4140625 37.1875 C17.2856904 30.25078627 14.57235559 25.27628694 9.3515625 20.5625 C4.11167464 16.92665945 -1.25413655 16.07659447 -7.44140625 15.09765625 C-10.04687614 14.33978291 -11.09908029 13.60375396 -12.7109375 11.4375 C-13.20210795 7.5783036 -13.44762154 5.39467647 -11.02734375 2.25 C-7.41653897 -0.57531773 -4.44588678 -0.17307588 0 0 Z " fill="#040203" transform="translate(272.7109375,158.5625)"/>
<path d="M0 0 C1.546875 -0.03867188 1.546875 -0.03867188 3.125 -0.078125 C6.39273176 0.29482265 7.73371679 0.88773303 10 3.25 C10.6413377 7.73936389 10.94983917 9.96093256 8.25 13.625 C4.98741873 15.25629064 2.76388013 15.65478062 -0.8125 16.125 C-7.87123569 17.13091319 -11.93004788 19.66184624 -16.52734375 25.03515625 C-19.26464928 28.89912087 -20.30902639 32.26400579 -21 36.9375 C-21.57166213 40.70837219 -21.99250862 42.23886995 -24.1875 45.5 C-27 47.25 -27 47.25 -30.625 47.3125 C-34 46.25 -34 46.25 -35.9375 44.75 C-38.85130926 37.89397821 -36.76021926 30.90256162 -34.32421875 24.17578125 C-29.6654647 13.8825459 -20.50941499 5.35662014 -10 1.25 C-6.65827205 0.19693447 -3.49570454 0.05243557 0 0 Z " fill="#050203" transform="translate(159,158.75)"/>
<path d="M0 0 C4.04381805 0.84246209 5.53235541 2.35899981 8 5.625 C8.38428179 8.60318388 8.29819524 10.12144389 6.7578125 12.72265625 C6.21898438 13.37105469 5.68015625 14.01945313 5.125 14.6875 C-0.78900359 21.90144158 -0.78349438 28.54793096 0 37.625 C1.26895971 41.95516149 3.31032514 44.8607657 6.3125 48.1875 C8 50.625 8 50.625 7.9375 54.25 C6.57142857 59.16785714 6.57142857 59.16785714 4 60.625 C0.625 61.125 0.625 61.125 -3 60.625 C-9.67732787 55.57628869 -14.19908068 47.69179068 -16 39.625 C-16.31151018 36.49458378 -16.38124253 33.39467241 -16.375 30.25 C-16.37338867 29.40800049 -16.37177734 28.56600098 -16.37011719 27.69848633 C-16.24884872 21.57502316 -15.43663465 16.80947633 -12 11.625 C-11.0409375 10.01625 -11.0409375 10.01625 -10.0625 8.375 C-4.48148148 0.93364198 -4.48148148 0.93364198 0 0 Z " fill="#040203" transform="translate(89,237.375)"/>
<path d="M0 0 C10.94330366 3.59745385 19.42725086 10.20163753 24.75 20.5 C27.28263573 26.83158932 29.89468176 33.63190944 28.75 40.5 C26.7942777 43.96012407 25.52754999 45.2022149 21.8125 46.625 C18.75 46.5 18.75 46.5 16 44.75 C13.3056524 40.85816458 12.9972157 37.88825249 12.328125 33.28515625 C10.87950971 26.30635421 6.44129572 21.483907 0.75 17.5 C-4.10167364 14.98086177 -8.76767542 13.88689752 -14.11328125 13.02734375 C-16.25 12.5 -16.25 12.5 -18.25 10.5 C-18.58956435 7.49243001 -18.80053953 5.4018021 -18.25 2.5 C-13.09037791 -3.75408738 -6.93333711 -1.84012738 0 0 Z " fill="#040203" transform="translate(263.25,229.5)"/>
<path d="M0 0 C1.1859375 0.15339844 2.371875 0.30679688 3.59375 0.46484375 C7.22419174 0.91864897 10.85235561 1.27234647 14.5 1.5625 C15.5415625 1.64628906 16.583125 1.73007813 17.65625 1.81640625 C18.81640625 1.90728516 18.81640625 1.90728516 20 2 C20.80863872 13.92742116 17.04301217 23.43405386 10 32.953125 C7.06075726 35.96125624 7.06075726 35.96125624 4 36 C0.87109375 34.85546875 0.87109375 34.85546875 -2.5625 33.1875 C-4.26599609 32.37345703 -4.26599609 32.37345703 -6.00390625 31.54296875 C-9 30 -9 30 -12 28 C-11.34 28 -10.68 28 -10 28 C-9.73932739 27.20057983 -9.73932739 27.20057983 -9.47338867 26.38500977 C-7.54254317 20.52140697 -5.46273622 14.72383505 -3.3125 8.9375 C-2.83200195 7.6390918 -2.83200195 7.6390918 -2.34179688 6.31445312 C-1.56248716 4.20915373 -0.78187196 2.10434886 0 0 Z " fill="#D9558D" transform="translate(394,184)"/>
<path d="M0 0 C1.359375 1.94140625 1.359375 1.94140625 2.75 4.5625 C7.34494338 12.57535693 13.00308964 17.49265052 21 22 C17.93242645 25.06757355 14.14322101 24.74953505 10 25.125 C9.11602539 25.20991699 8.23205078 25.29483398 7.32128906 25.38232422 C-1.45974266 26.15914386 -10.19345125 26.19144671 -19 26 C-21.36915065 21.56236646 -23.41460293 17.51238244 -24.25 12.5 C-24.39953125 11.6440625 -24.5490625 10.788125 -24.703125 9.90625 C-24.80109375 9.2771875 -24.8990625 8.648125 -25 8 C-23.83082031 7.67386719 -22.66164063 7.34773438 -21.45703125 7.01171875 C-19.908746 6.57069204 -18.36057486 6.12926462 -16.8125 5.6875 C-16.04357422 5.47416016 -15.27464844 5.26082031 -14.48242188 5.04101562 C-9.60922683 3.63971061 -4.86623374 0 0 0 Z " fill="#DC72A2" transform="translate(91,397)"/>
<path d="M0 0 C3.26335991 2.28435194 4.65839348 3.6335739 5.625 7.5 C4.67733627 11.29065494 3.10786007 12.65324852 0 15 C-2.29099916 15.64408873 -4.57535802 16.06489219 -6.9140625 16.5 C-10.06487813 17.25525169 -11.25413475 18.2764502 -13 21 C-13.35240064 22.47017144 -13.66097672 23.9511874 -13.9375 25.4375 C-14.79544049 29.95847337 -16.12903257 32.27272749 -20 35 C-23.55483933 35.65292967 -25.22091596 35.43054644 -28.375 33.6875 C-31.04872713 29.26556666 -30.7576441 25.01773069 -30 20 C-27.18271795 11.28637099 -21.94070794 6.12686267 -14.1875 1.625 C-9.56366909 -0.50699985 -4.99781921 -0.99442029 0 0 Z " fill="#060304" transform="translate(185,87)"/>
<path d="M0 0 C7.64456154 3.82228077 13.54561483 9.12471316 16.375 17.375 C16.96086321 21.46062499 17.22550576 25.32190013 16.375 29.375 C14.05244619 32.29660574 13.09518003 33.25497 9.375 33.875 C6.375 33.375 6.375 33.375 4.125 31.9375 C2.35265711 29.34228363 1.98609122 27.9572682 1.4375 24.9375 C0.54871764 20.35801125 -0.68967895 18.13809776 -4.625 15.375 C-6.91379 14.74558275 -9.197826 14.31058969 -11.53125 13.87890625 C-13.625 13.375 -13.625 13.375 -16.1875 11.75 C-18.42484096 8.05352364 -18.16963394 5.66399228 -17.625 1.375 C-13.71078093 -4.07087001 -5.37831811 -2.19729578 0 0 Z " fill="#040203" transform="translate(257.625,88.625)"/>
<path d="M0 0 C1.9375 1.125 1.9375 1.125 3 3 C3.53852618 6.61581862 3.42236225 8.34111489 1.4375 11.4375 C-1 13 -1 13 -4.625 12.9375 C-8 12 -8 12 -10 9 C-10.32162076 5.9124407 -10.48724515 3.85984439 -8.9375 1.125 C-5.8930714 -0.64273274 -3.4368988 -0.36823916 0 0 Z " fill="#050705" transform="translate(422,142)"/>
</svg>
